<svg viewBox="0 0 172 40" xmlns="http://www.w3.org/2000/svg" class="logo resizable" data-v-0292a1fb=""><path d="M169.654 21.7358L159.462 11.6687L156.578 14.6409L163.693 21.7358L156.578 28.9266L159.462 31.8988L169.654 21.7358Z" fill="#DC6655" data-v-0292a1fb=""></path> <path d="M7.65604 31.6106C5.63704 31.6106 3.90646 31.2271 2.84889 30.3642C1.11831 29.1178 0.445312 27.4879 0.445312 24.9951V6.39491H4.77175V12.1475H11.0211V16.3661H4.77175V24.2281C4.77175 25.7621 5.06018 26.5291 5.82933 27.0085C6.31004 27.2962 7.17533 27.4879 8.52133 27.4879C9.38662 27.4879 11.0211 27.392 11.0211 27.392V31.323C11.0211 31.323 9.48276 31.6106 7.65604 31.6106ZM125.912 27.6797C123.989 30.4601 121.201 31.8983 117.451 31.8983C114.375 31.8983 111.779 30.9395 109.856 29.0219C107.933 27.1044 106.972 24.7075 106.972 21.8312C106.972 18.9548 107.933 16.5579 109.856 14.6404C111.779 12.7228 114.183 11.764 117.163 11.764C119.951 11.764 122.259 12.7228 124.085 14.7362C125.912 16.6538 126.777 19.1466 126.777 21.927C126.777 22.9817 126.585 23.7487 126.585 23.7487H111.587C111.875 25.091 112.548 26.0497 113.606 26.8168C114.663 27.5838 116.009 27.9673 117.548 27.9673C119.663 27.9673 121.297 27.2003 122.355 25.6662L125.912 27.6797ZM111.587 20.0095H122.355C122.066 18.5713 121.489 17.5167 120.528 16.7497C119.567 15.9826 118.413 15.5991 117.067 15.5991C115.625 15.5991 114.375 15.9826 113.413 16.8455C112.548 17.7084 111.875 18.7631 111.587 20.0095ZM75.6292 27.6797C73.7063 30.4601 70.9182 31.8983 67.1686 31.8983C64.092 31.8983 61.4962 30.9395 59.5733 29.0219C57.6504 27.1044 56.689 24.7075 56.689 21.8312C56.689 18.9548 57.6504 16.5579 59.5733 14.6404C61.4962 12.7228 63.8997 11.764 66.8802 11.764C69.6683 11.764 71.9758 12.7228 73.8025 14.7362C75.6292 16.6538 76.4945 19.1466 76.4945 21.927C76.4945 22.9817 76.3022 23.7487 76.3022 23.7487H61.3039C61.5923 25.091 62.2653 26.0497 63.3229 26.8168C64.3805 27.5838 65.7265 27.9673 67.2648 27.9673C69.3799 27.9673 71.0143 27.2003 72.0719 25.6662L75.6292 27.6797ZM61.3039 20.0095H72.0719C71.7835 18.5713 71.2066 17.5167 70.2452 16.7497C69.2838 15.9826 68.1301 15.5991 66.784 15.5991C65.3419 15.5991 64.092 15.9826 63.1306 16.8455C62.1692 17.7084 61.5923 18.7631 61.3039 20.0095ZM20.6354 7.83307C20.6354 6.39491 19.4816 5.24438 18.0395 5.24438C16.5974 5.24438 15.4436 6.39491 15.4436 7.83307C15.4436 9.27123 16.5974 10.4218 18.0395 10.4218C19.4816 10.4218 20.6354 9.27123 20.6354 7.83307ZM100.434 31.4189L105.434 12.2434H101.011L97.9344 25.7621H97.646L94.0887 12.2434H89.57L85.9165 25.7621H85.6281L82.5515 12.2434H78.1289L83.1284 31.4189H88.224L91.6851 17.9002H91.9735L95.4347 31.4189H100.434ZM53.4202 31.4189V19.5301C53.4202 17.1332 52.7472 15.2156 51.4011 13.8733C50.0551 12.4352 48.3246 11.764 46.1133 11.764C43.8058 11.764 41.5946 13.0104 40.4408 15.0239H40.1524C39.191 13.0104 37.172 11.764 34.8645 11.764C32.6532 11.764 30.7304 12.8187 29.6728 14.5445H29.4805V12.2434H25.0579V31.4189H29.4805V20.6806C29.4805 19.1466 29.8651 17.9002 30.7304 17.0373C31.4995 16.2703 32.461 15.7909 33.6147 15.7909C34.6723 15.7909 35.5375 16.1744 36.1144 16.8455C36.6913 17.5167 36.9797 18.5713 36.9797 19.8177V31.4189H41.4023V20.6806C41.4023 19.1466 41.7868 17.9002 42.556 17.0373C43.229 16.2703 44.2866 15.8868 45.4403 15.8868C46.4978 15.8868 47.3631 16.2703 48.0361 16.9414C48.7091 17.6126 48.9976 18.6672 48.9976 19.9136V31.5148H53.4202V31.4189ZM20.2508 31.4189V12.2434H15.8282V31.4189H20.2508ZM148.025 28.9261C149.852 27.0085 150.813 24.6116 150.813 21.7353C150.813 18.9548 149.852 16.462 148.025 14.5445C146.198 12.6269 143.891 11.6682 141.391 11.6682C138.891 11.6682 136.392 12.8187 134.853 14.5445H134.565V6.39491H130.142V31.323H134.565V28.9261H134.853C136.392 30.7477 138.988 31.8983 141.487 31.8983C144.083 31.8983 146.198 30.8436 148.025 28.9261ZM144.756 17.5167C145.91 18.6672 146.391 20.0095 146.391 21.7353C146.391 23.4611 145.814 24.8033 144.756 25.9539C143.602 27.1044 142.256 27.5838 140.526 27.5838C138.795 27.5838 137.449 27.0085 136.296 25.9539C135.142 24.8033 134.661 23.4611 134.661 21.7353C134.661 20.0095 135.238 18.6672 136.296 17.5167C137.449 16.3661 138.795 15.8868 140.526 15.8868C142.256 15.8868 143.602 16.462 144.756 17.5167Z" fill="#4D3B3B" data-v-0292a1fb=""></path></svg>